# xmcd CD database file
#
# Track frame offsets:
#	150
#	23237
#	39137
#	60432
#	76200
#	94227
#	109480
#	132167
#
# Disc length: 2090 seconds
#
# Revision: 0
# Processed by: cddbd v1.4PL0 Copyright (c) Steve Scherf et al.
# Submitted via: CDex 1.50beta10
#
DISCID=5c082808
DTITLE=Ukadan,Toshiro Masuda and Kantaro Uchida - CHASIN' THE WIND
DYEAR=1995
DGENRE=Blues
TTITLE0=Kazeo Oikakete Chasin' The Wind
TTITLE1=Bella Vista
TTITLE2=Heaven's Door
TTITLE3=Rio Sunset
TTITLE4=Yozora ni Higasashitemo
TTITLE5=Dark Moon
TTITLE6=1991 Suzuka
TTITLE7=Kazeo Oikakete Chasin' The Wind instrumental Version
EXTD=YEAR: 1995
EXTT0=
EXTT1=
EXTT2=
EXTT3=
EXTT4=
EXTT5=
EXTT6=
EXTT7=
PLAYORDER=
